<svg xmlns="http://www.w3.org/2000/svg" viewBox="0 -0.5 64 64" shape-rendering="crispEdges">
<path stroke="#1687a7" d="M27 2h10M23 3h8M37 3h3M21 4h8M39 4h3M18 5h10M41 5h4M17 6h2M20 6h7M41 6h3M45 6h3M15 7h1M17 7h9M41 7h1M44 7h2M47 7h2M14 8h2M17 8h2M22 8h2M44 8h2M49 8h2M12 9h9M22 9h1M45 9h7M11 10h16M45 10h8M10 11h6M17 11h10M45 11h5M51 11h3M9 12h17M44 12h8M53 12h2M9 13h18M29 13h1M47 13h1M49 13h1M51 13h4M8 14h9M18 14h7M46 14h8M55 14h1M7 15h4M12 15h9M22 15h3M38 15h1M47 15h10M7 16h4M12 16h2M15 16h10M46 16h5M52 16h6M6 17h20M32 17h1M37 17h1M44 17h1M46 17h2M49 17h7M57 17h2M5 18h13M19 18h9M29 18h1M33 18h1M42 18h15M58 18h1M5 19h16M22 19h4M43 19h16M5 20h6M13 20h12M42 20h11M54 20h1M56 20h2M59 20h1M4 21h21M43 21h16M4 22h4M9 22h15M39 22h1M42 22h19M3 23h13M17 23h3M21 23h2M25 23h1M41 23h10M52 23h5M58 23h3M4 24h19M40 24h13M54 24h2M57 24h4M3 25h15M19 25h3M25 25h6M39 25h14M54 25h1M56 25h3M60 25h1M3 26h10M14 26h5M20 26h11M39 26h8M48 26h14M2 27h26M40 27h8M49 27h13M2 28h1M6 28h3M10 28h19M42 28h15M58 28h4M2 29h2M5 29h9M15 29h2M18 29h9M44 29h3M48 29h14M2 30h4M7 30h2M10 30h16M32 30h2M46 30h3M50 30h5M56 30h3M60 30h1M2 31h7M10 31h7M18 31h8M33 31h1M47 31h3M51 31h5M57 31h5M2 32h8M11 32h14M47 32h7M56 32h6M2 33h13M16 33h4M21 33h4M32 33h2M47 33h15M2 34h8M11 34h10M23 34h2M32 34h2M48 34h10M59 34h3M2 35h13M17 35h1M19 35h6M31 35h3M48 35h14M2 36h23M31 36h4M48 36h12M61 36h1M3 37h5M10 37h5M16 37h4M21 37h2M24 37h1M32 37h2M48 37h14M3 38h5M11 38h3M17 38h1M19 38h6M31 38h3M48 38h13M3 39h5M11 39h3M18 39h1M20 39h5M31 39h3M48 39h3M52 39h9M3 40h3M11 40h4M18 40h7M31 40h1M33 40h1M48 40h4M53 40h2M56 40h5M4 41h3M14 41h1M18 41h7M32 41h2M48 41h5M54 41h7M4 42h3M19 42h5M32 42h2M48 42h4M53 42h7M4 43h5M32 43h1M48 43h8M57 43h3M5 44h4M32 44h1M48 44h12M5 45h4M16 45h1M32 45h1M47 45h1M49 45h7M57 45h2M6 46h3M12 46h1M45 46h1M49 46h9M8 47h1M49 47h9M49 48h1M51 48h6M27 49h1M48 49h6M55 49h2M10 50h1M48 50h8M48 51h7M30 52h1M49 52h5M48 53h5M48 54h4M43 55h1M48 55h3M42 56h1M48 56h2M39 57h1M32 58h1" />
<path stroke="#311f5f" d="M31 3h2M34 3h3M29 4h10M28 5h5M34 5h6M27 6h7M35 6h6M26 7h4M31 7h5M37 7h3M42 7h2M24 8h2M27 8h10M38 8h6M23 9h5M29 9h16M27 10h1M35 10h2M38 10h1M41 10h4M40 11h5M26 12h1M39 12h1M42 12h2M27 13h2M39 13h6M25 14h6M32 14h5M39 14h7M25 15h5M32 15h6M40 15h1M43 15h3M25 16h5M32 16h6M39 16h2M42 16h4M26 17h2M33 17h4M39 17h1M43 17h1M34 18h2M38 18h2M41 18h1M26 19h1M34 19h2M38 19h2M25 20h1M41 20h1M41 21h1M24 22h1M41 22h1M26 23h2M39 23h1M23 24h1M28 24h1M30 24h2M39 24h1M22 25h3M29 27h3M39 27h1M29 28h3M38 28h4M27 29h3M32 29h2M36 29h1M39 29h5M26 30h4M34 30h1M39 30h7M26 31h7M34 31h1M38 31h3M42 31h5M26 32h5M32 32h2M36 32h1M38 32h8M25 33h6M37 33h10M25 34h4M30 34h1M37 34h11M25 35h2M28 35h3M37 35h9M47 35h1M25 36h2M28 36h1M30 36h1M36 36h12M8 37h2M15 37h1M25 37h7M36 37h12M16 38h1M25 38h6M35 38h13M17 39h1M26 39h5M34 39h3M38 39h10M25 40h6M34 40h1M36 40h6M43 40h5M11 41h3M25 41h7M34 41h14M11 42h4M18 42h1M24 42h3M28 42h2M31 42h1M34 42h1M36 42h1M39 42h1M41 42h7M11 43h1M15 43h1M19 43h13M33 43h9M43 43h5M9 44h1M13 44h1M19 44h10M30 44h1M33 44h15M19 45h10M30 45h2M33 45h14M48 45h1M9 46h1M14 46h2M19 46h26M46 46h3M14 47h1M19 47h11M31 47h2M34 47h15M10 48h1M13 48h2M18 48h7M27 48h2M37 48h11M9 49h1M14 49h1M17 49h1M29 49h1M37 49h3M41 49h7M37 50h11M36 51h1M39 51h2M42 51h4M28 52h1M33 52h6M44 52h4M45 53h2M45 54h3M44 55h4M41 56h1M45 56h1M47 56h1M45 57h3M31 58h1M45 58h2" />
<path stroke="#311f5e" d="M33 3h1M37 8h1M36 18h1M27 35h1M29 36h1M30 47h1M26 48h1M38 51h1" />
<path stroke="#1685a7" d="M40 3h1M19 6h1M46 7h1M16 8h1M52 12h1M55 13h1M21 15h1M46 15h1M59 21h1M20 23h1M57 23h1M53 25h1M48 27h1M9 28h1M14 29h1M47 29h1M49 30h1M10 34h1M15 35h1M6 40h1" />
<path stroke="rgba(24,136,168,0.7490196078431373)" d="M41 3h1M20 4h1M56 14h1M4 20h1M3 41h1" />
<path stroke="#1687a5" d="M42 4h1M40 5h1M21 8h1M11 15h1M12 20h1M42 21h1M23 23h1M51 23h1M3 24h1M59 25h1M19 26h1M28 27h1M4 28h1M57 28h1M17 29h1M9 30h1M55 30h1M10 32h1M25 32h1M18 38h1M56 45h1M50 48h1" />
<path stroke="#1787a7" d="M43 4h1M46 8h1M48 8h1M51 16h1M56 17h1M57 18h1M21 19h1M42 19h1M55 20h1M53 24h1M18 25h1M47 26h1M9 31h1M17 31h1M15 33h1M21 34h1M20 37h1M52 40h1M56 43h1" />
<path stroke="#301f5f" d="M33 5h1M30 29h1M30 30h1M48 48h1M37 51h1M41 51h1" />
<path stroke="#1687a6" d="M45 5h1M19 8h1M50 11h1M16 23h1M24 23h1M13 26h1M4 29h1M59 30h1M61 30h1M50 31h1M56 31h1M54 32h2M58 34h1M23 37h1M34 37h1M32 40h1M53 41h1M52 42h1M20 59h1" />
<path stroke="rgba(27,135,167,0.25098039215686274)" d="M16 6h1M49 7h1M13 8h1M8 13h1M6 16h1M61 25h1M54 52h1" />
<path stroke="#311e5f" d="M34 6h1M30 7h1M40 7h1M26 8h1M37 10h1M40 12h1M39 15h1M28 23h1M25 39h1M35 40h1M29 44h1M33 47h1M13 50h1M47 51h1" />
<path stroke="#1487a7" d="M44 6h1M16 7h1M20 8h1M21 9h1M46 13h1M48 13h1M50 13h1M17 14h1M54 14h1M11 16h1M14 16h1M45 17h1M53 20h1M56 24h1M5 28h1M16 35h1M51 39h1M58 46h1M54 49h1M48 52h1" />
<path stroke="#311f5d" d="M36 7h1M45 13h1M27 24h1M41 31h1M46 35h1M34 38h1M35 42h1M37 42h1M40 42h1" />
<path stroke="#1686a7" d="M47 8h1M16 11h1M11 20h1M58 20h1M8 22h1M55 25h1M3 28h1M6 30h1M20 33h1M18 35h1M60 36h1M19 39h1M55 40h1M9 47h1M39 52h1" />
<path stroke="#331f5f" d="M28 9h1M33 12h1M28 17h1M27 36h1M37 39h1M42 43h1M29 45h1M46 51h1M46 56h1" />
<path stroke="#edffb1" d="M28 10h7M39 10h2M27 11h2M30 11h10M27 12h2M30 12h2M34 12h5M30 13h9M31 14h1M37 14h2M30 15h2M41 15h2M31 16h1M38 16h1M41 16h1M29 17h3M38 17h1M40 17h3M28 18h1M30 18h2M37 18h1M40 18h1M27 19h7M36 19h2M40 19h2M26 20h5M32 20h4M37 20h4M25 21h7M33 21h8M25 22h4M30 22h3M34 22h5M40 22h1M29 23h3M33 23h6M40 23h1M24 24h3M29 24h1M32 24h6M31 25h5M37 25h2M31 26h8M32 27h1M34 27h5M32 28h6M31 29h1M34 29h2M37 29h2M31 30h1M35 30h4M35 31h2M31 32h1M34 32h2M37 32h1M31 33h1M34 33h3M31 34h1M34 34h3M34 35h3M35 36h1M35 37h1M8 38h3M14 38h2M8 39h3M14 39h3M7 40h2M10 40h1M15 40h3M7 41h4M15 41h2M7 42h4M17 42h1M9 43h2M12 43h3M17 43h2M10 44h3M14 44h5M9 45h7M17 45h2M10 46h2M13 46h1M16 46h3M6 47h2M10 47h4M15 47h4M7 48h3M11 48h2M16 48h2M29 48h2M32 48h5M8 49h1M10 49h4M15 49h2M18 49h2M21 49h6M28 49h1M30 49h7M8 50h2M11 50h2M14 50h21M36 50h1M9 51h8M18 51h6M25 51h9M35 51h1M10 52h6M17 52h4M22 52h2M25 52h3M29 52h1M31 52h2M40 52h1M42 52h2M11 53h5M17 53h11M29 53h16M13 54h9M23 54h1M25 54h10M36 54h9M13 55h13M27 55h5M33 55h7M41 55h2M15 56h6M22 56h16M39 56h2M43 56h2M16 57h4M21 57h2M24 57h4M29 57h10M40 57h1M42 57h3M17 58h4M22 58h9M33 58h12M21 59h2M24 59h7M32 59h5M38 59h1M40 59h1M42 59h3M22 60h20M28 61h10" />
<path stroke="#edffb0" d="M29 11h1M38 24h1M17 51h1M38 56h1M20 57h1M23 59h1" />
<path stroke="#efffb1" d="M29 12h1M32 21h1M32 23h1M33 27h1M15 42h2M20 49h1M35 50h1M35 54h1M41 59h1" />
<path stroke="#ecffb1" d="M32 12h1M33 22h1M9 40h1M24 51h1M21 52h1M16 53h1M40 55h1M41 57h1" />
<path stroke="#311d5f" d="M41 12h1M46 32h1M29 34h1M42 40h1M27 42h1M30 42h1M38 42h1M31 44h1M25 48h1M40 49h1" />
<path stroke="#edfeb1" d="M30 16h1M31 20h1M29 22h1M31 48h1M34 51h1M41 52h1M12 54h1M26 55h1M28 57h1" />
<path stroke="#1787a6" d="M48 17h1" />
<path stroke="#1587a7" d="M18 18h1M22 34h1" />
<path stroke="#edfdb1" d="M32 18h1M37 31h1M16 43h1M15 48h1M24 52h1M22 54h1M32 55h1M31 59h1M37 59h1M26 61h2" />
<path stroke="#edffb3" d="M36 20h1M36 25h1M17 41h1M16 52h1M24 54h1M21 56h1M23 57h1" />
<path stroke="rgba(25,135,167,0.5019607843137255)" d="M61 38h1" />
<path stroke="rgba(29,135,167,0.5019607843137255)" d="M60 42h1" />
<path stroke="rgba(239,255,179,0.25098039215686274)" d="M7 49h1M25 61h1" />
<path stroke="#effdb1" d="M28 53h1" />
<path stroke="#321f5f" d="M47 53h1" />
<path stroke="rgba(31,135,167,0.25098039215686274)" d="M52 54h1" />
<path stroke="rgba(238,255,178,0.7490196078431373)" d="M14 56h1" />
<path stroke="#edffb2" d="M21 58h1" />
<path stroke="#ecffb0" d="M39 59h1" />
<path stroke="rgba(237,255,177,0.5019607843137255)" d="M42 60h1M38 61h1" />
</svg>
